<?xml version="1.0" encoding="utf-8"?>
<!-- Generator: Adobe Illustrator 16.0.0, SVG Export Plug-In . SVG Version: 6.00 Build 0)  -->
<!DOCTYPE svg PUBLIC "-//W3C//DTD SVG 1.1//EN" "http://www.w3.org/Graphics/SVG/1.1/DTD/svg11.dtd">
<svg version="1.1" id="Layer_1" xmlns="http://www.w3.org/2000/svg" xmlns:xlink="http://www.w3.org/1999/xlink" x="0px" y="0px"
	 width="1920px" height="900px" viewBox="0 0 1920 900" enable-background="new 0 0 1920 900" xml:space="preserve">
<g>
	<g>
		<path fill="#26272d" d="M1920,697.299V900H0V709.198c61.205,22.594,190.932,53.182,398.132,19.95
			c180.807-28.965,466.133-84.553,778.334-20.614C1563.405,787.741,1784.732,757.153,1920,697.299"/>
		<path fill="#26272d" d="M417.788,732.284h879.38v-4.387h-5.162c0.439-1.27,0.738-2.592,0.738-3.989
			c0-5.832-4.131-10.746-9.87-12.627c0-0.066,0.016-0.13,0.016-0.198c0-1.988-1.403-3.666-3.366-4.311l-0.715-1.968
			c0.132-0.178,0.227-0.381,0.227-0.614c0-0.45-0.303-0.83-0.727-1.01l-0.445-6.199c0-0.026-0.031-0.047-0.062-0.047
			c-0.038,0-0.071,0.021-0.071,0.047l-0.446,6.199c-0.428,0.18-0.733,0.56-0.733,1.01c0,0.233,0.098,0.44,0.237,0.619l-0.719,1.963
			c-1.963,0.645-3.373,2.318-3.373,4.311c0,0.068,0.017,0.132,0.022,0.198c-4.473,1.464-7.936,4.779-9.263,8.921v-15.646h0.271
			c0.649,0,1.172-0.475,1.172-1.064v-0.605c0-0.583-0.522-1.063-1.172-1.063h-1.601c0.072-0.396,0.114-0.786,0.114-1.207
			c0-2.845-1.676-5.345-4.181-6.737c-1.535-0.858-2.867-1.987-3.927-3.304c0.197-0.167,0.317-0.405,0.317-0.668
			c0-0.368-0.245-0.694-0.604-0.832l-0.256-3.599h-0.3l-0.257,3.599c-0.359,0.138-0.605,0.464-0.605,0.832
			c0,0.263,0.116,0.501,0.317,0.668c-1.048,1.322-2.376,2.442-3.931,3.304c-2.504,1.393-4.176,3.893-4.176,6.737
			c0,0.421,0.042,0.812,0.106,1.207h-1.548c-0.65,0-1.18,0.479-1.18,1.063v0.605c0,0.59,0.529,1.064,1.18,1.064h0.231v14.919h-3.842
			c0.996-1.681,1.539-3.475,1.539-5.33c0-6.482-6.549-12.154-16.365-15.324c-6.39-2.066-11.833-4.85-16.074-8.088
			c0.167-0.285,0.275-0.591,0.275-0.935c0-0.846-0.565-1.572-1.38-1.893l-0.586-8.174h-0.677l-0.583,8.174
			c-0.813,0.32-1.384,1.047-1.384,1.893c0,0.344,0.113,0.649,0.273,0.935c-4.242,3.257-9.628,6.004-16.075,8.088
			c-4.373,1.412-8.043,3.342-10.828,5.598v-3.785h0.674v-2.814h1.162v-3.608h-1.836v-28.324h0.674v-2.814h1.162v-3.606h-1.916
			c-0.087-3.124-0.306-6.235-0.749-9.285c0,0-4.201-24.9-5.011-24.907c-0.813-0.008-5.173,24.616-5.173,24.616
			c-0.484,3.141-0.723,6.351-0.824,9.576h-1.932v3.606h1.16v2.814h0.675v28.324h-1.835v0.012
			c-5.195-13.557-19.057-23.432-35.625-24.271v-1.287c0-0.467-0.421-0.845-0.938-0.845l-0.729-0.001l-0.598-13.551
			c1.668,0.511,3.477,0.705,5.332,0.413c2.997-0.475,5.48-2.006,7.08-4.094c-1.152,0.642-2.441,1.1-3.857,1.322
			c-5.9,0.934-11.538-2.629-12.571-7.953c-0.51-2.637,0.188-5.206,1.749-7.242c-3.648,2.051-5.756,5.956-4.966,10.013
			c0.663,3.419,3.236,6.091,6.546,7.333l-0.582,13.759h-0.75c-0.242,0-0.474,0.087-0.646,0.24c-0.171,0.154-0.267,0.364-0.267,0.581
			v1.341c-16.54,1.076-30.299,11.164-35.236,24.867v-29.119h0.865v-3.609h1.488v-4.627h-2.354v-36.319h0.865v-3.609h1.488v-4.625
			h-2.457c-0.112-4.006-0.392-7.995-0.961-11.906c0,0-5.387-31.93-6.425-31.939c-1.043-0.01-6.633,31.566-6.633,31.566
			c-0.621,4.026-0.927,8.144-1.057,12.279h-2.477v4.625h1.485v3.609h0.866v36.319h-2.352v4.627h1.485v3.609h0.866v13.71
			c-10.61-18.84-29.925-32.177-52.541-34.629v-2.789c0-1.341-0.733-2.432-1.646-2.432h-3.123l-2.244-20.559h-0.994l-2.287,20.559
			h-3.154c-0.905,0-1.636,1.091-1.636,2.432v2.788c-17.654,1.911-33.29,10.46-44.354,23.079
			c-2.942-24.569-18.646-44.875-60.175-59.924c-27.153-9.839-36.261-24.348-39.157-31.179c4.37-0.439,7.663-2.359,7.663-4.666
			c0-2.162-2.913-3.965-6.876-4.546l-0.636-15.51c1.311-0.361,2.207-1.049,2.207-1.847c0-0.832-0.965-1.541-2.361-1.89
			l-0.624-15.189c6.081,1.178,12.57,0.977,18.883-0.943c9.483-2.887,16.705-8.981,20.749-16.492
			c-3.377,2.609-7.335,4.68-11.802,6.039c-18.699,5.684-38.995-3.384-45.303-20.24c-3.129-8.354-2.257-17.032,1.693-24.357
			c-10.756,8.31-15.455,21.958-10.641,34.811c3.993,10.679,13.614,18.216,24.88,20.872l-1.024,15.377
			c-1.721,0.272-2.982,1.063-2.982,2.014c0,0.898,1.131,1.662,2.717,1.971l-1.025,15.367c-4.025,0.562-6.995,2.381-6.995,4.564
			c0,2.386,3.533,4.341,8.128,4.689c-2.905,6.841-12.023,21.327-39.147,31.155c-44.201,16.019-59.151,37.992-60.588,64.725
			c-11.115-15.232-28.388-25.731-48.197-27.879v-2.789c0-1.341-0.734-2.432-1.646-2.432h-3.122l-2.245-20.559h-0.995l-2.285,20.559
			h-3.154c-0.906,0-1.637,1.091-1.637,2.432v2.788c-24.947,2.701-45.881,18.649-55.54,40.619v-19.699h0.864v-3.609h1.488v-4.627
			h-2.352v-36.319h0.864v-3.609h1.488v-4.625h-2.457c-0.111-4.006-0.391-7.995-0.96-11.906c0,0-5.386-31.93-6.426-31.939
			c-1.041-0.01-6.633,31.566-6.633,31.566c-0.62,4.026-0.924,8.144-1.056,12.279h-2.476v4.625h1.487v3.609h0.865v36.319h-2.352
			v4.627h1.487v3.609h0.865v24.847c-6.127-11.652-18.929-19.861-33.97-20.624v-1.287c0-0.467-0.419-0.845-0.938-0.845l-0.727-0.001
			l-0.598-13.551c1.668,0.511,3.478,0.705,5.332,0.413c2.997-0.475,5.48-2.006,7.079-4.094c-1.15,0.642-2.44,1.1-3.856,1.322
			c-5.9,0.934-11.539-2.629-12.571-7.953c-0.51-2.637,0.188-5.206,1.748-7.242c-3.647,2.051-5.754,5.956-4.965,10.013
			c0.664,3.419,3.235,6.091,6.547,7.333l-0.583,13.759h-0.751c-0.242,0-0.473,0.087-0.645,0.24
			c-0.171,0.154-0.266,0.364-0.266,0.581v1.341c-16.28,1.06-29.845,10.855-34.978,24.23h-1.331v-28.324h0.673v-2.814h1.162v-3.606
			h-1.916c-0.087-3.124-0.306-6.235-0.75-9.285c0,0-4.2-24.9-5.01-24.907c-0.813-0.008-5.173,24.616-5.173,24.616
			c-0.484,3.141-0.722,6.351-0.825,9.576h-1.93v3.606h1.159v2.814h0.675v28.324h-1.834v3.608h1.159v2.814h0.675v3.334
			c-2.715-2.061-6.182-3.828-10.263-5.146c-6.446-2.084-11.833-4.831-16.073-8.088c0.159-0.285,0.273-0.591,0.273-0.935
			c0-0.846-0.571-1.572-1.385-1.893l-0.583-8.174h-0.677l-0.586,8.174c-0.814,0.32-1.38,1.047-1.38,1.893
			c0,0.344,0.109,0.649,0.276,0.935c-4.241,3.238-9.684,6.021-16.074,8.088c-9.816,3.17-16.364,8.842-16.364,15.324
			c0,1.855,0.542,3.649,1.537,5.33h-3.841v-14.919h0.231c0.651,0,1.181-0.475,1.181-1.064v-0.605c0-0.583-0.53-1.063-1.181-1.063
			h-1.547c0.064-0.396,0.106-0.786,0.106-1.207c0-2.845-1.672-5.345-4.176-6.737c-1.555-0.861-2.882-1.981-3.93-3.304
			c0.2-0.167,0.317-0.405,0.317-0.668c0-0.368-0.246-0.694-0.606-0.832l-0.256-3.599h-0.3l-0.256,3.599
			c-0.359,0.138-0.605,0.464-0.605,0.832c0,0.263,0.121,0.501,0.317,0.668c-1.058,1.316-2.39,2.445-3.926,3.304
			c-2.504,1.393-4.181,3.893-4.181,6.737c0,0.421,0.043,0.812,0.114,1.207h-1.6c-0.65,0-1.172,0.479-1.172,1.063v0.605
			c0,0.59,0.522,1.064,1.172,1.064h0.272v15.647c-1.327-4.142-4.79-7.458-9.263-8.922c0.004-0.066,0.023-0.13,0.023-0.198
			c0-1.992-1.41-3.666-3.374-4.311l-0.719-1.963c0.14-0.179,0.238-0.386,0.238-0.619c0-0.45-0.306-0.83-0.733-1.01l-0.446-6.199
			c0-0.026-0.034-0.047-0.073-0.047c-0.029,0-0.06,0.021-0.06,0.047l-0.446,6.199c-0.423,0.18-0.727,0.56-0.727,1.01
			c0,0.233,0.095,0.437,0.227,0.614l-0.715,1.968c-1.963,0.645-3.366,2.322-3.366,4.311c0,0.068,0.016,0.132,0.016,0.198
			c-5.739,1.881-9.87,6.795-9.87,12.627c0,1.397,0.299,2.72,0.737,3.989h-5.162V732.284z M1258.938,711.359
			c0-2.104,0.688-3.871,1.627-4.401c0.934,0.53,1.618,2.298,1.618,4.401v8.256h-3.245V711.359z M1249.334,710.483
			c0-2.325,1.736-4.277,4.108-4.874c2.36,0.597,4.101,2.549,4.101,4.874v9.132h-6.223v-0.141h-1.986V710.483z M1244.724,711.359
			c0-2.104,0.684-3.871,1.619-4.401c0.938,0.53,1.622,2.298,1.622,4.401v8.115h-3.241V711.359z M466.992,711.359
			c0-2.104,0.685-3.871,1.622-4.401c0.936,0.53,1.619,2.298,1.619,4.401v8.115h-3.241V711.359z M457.414,710.483
			c0-2.325,1.74-4.277,4.101-4.874c2.371,0.597,4.108,2.549,4.108,4.874v8.991h-1.986v0.141h-6.223V710.483z M452.772,711.359
			c0-2.104,0.684-3.871,1.619-4.401c0.938,0.53,1.626,2.298,1.626,4.401v8.256h-3.245V711.359z"/>
	</g>
</g>
</svg>
